<mxfile host="Electron" modified="2024-04-29T20:53:24.525Z" agent="Mozilla/5.0 (Windows NT 10.0; Win64; x64) AppleWebKit/537.36 (KHTML, like Gecko) draw.io/24.2.5 Chrome/120.0.6099.109 Electron/28.1.0 Safari/537.36" etag="BPrvcHZM9QDhMpadGldJ" version="24.2.5" type="device">
  <diagram id="pugtmg__WL7AQMjPcXsp" name="Page-1">
    <mxGraphModel dx="1420" dy="1922" grid="1" gridSize="10" guides="1" tooltips="1" connect="1" arrows="1" fold="1" page="1" pageScale="1" pageWidth="850" pageHeight="1100" math="0" shadow="0">
      <root>
        <mxCell id="0" />
        <mxCell id="1" parent="0" />
        <mxCell id="nmbMrTegTF2QSOQArtxi-12" value="" style="rounded=0;whiteSpace=wrap;html=1;" vertex="1" parent="1">
          <mxGeometry x="20" y="-340" width="830" height="960" as="geometry" />
        </mxCell>
        <mxCell id="nmbMrTegTF2QSOQArtxi-6" value="" style="rounded=0;whiteSpace=wrap;html=1;fillColor=#fff2cc;strokeColor=#d6b656;strokeWidth=2;" vertex="1" parent="1">
          <mxGeometry x="140" y="-40" width="361.5" height="90" as="geometry" />
        </mxCell>
        <mxCell id="XpsL9-PmgXXsCilGG3Tj-1" value="" style="rounded=0;whiteSpace=wrap;html=1;fillColor=#dae8fc;strokeColor=#6c8ebf;strokeWidth=2;" parent="1" vertex="1">
          <mxGeometry x="140" y="60" width="100" height="330" as="geometry" />
        </mxCell>
        <mxCell id="XpsL9-PmgXXsCilGG3Tj-2" value="" style="rounded=0;whiteSpace=wrap;html=1;fillColor=#dae8fc;strokeColor=#6c8ebf;strokeWidth=2;" parent="1" vertex="1">
          <mxGeometry x="250" y="60" width="520" height="330" as="geometry" />
        </mxCell>
        <mxCell id="XpsL9-PmgXXsCilGG3Tj-3" value="Payment Transaction Managment&lt;span&gt;&lt;br&gt;&lt;/span&gt;" style="rounded=0;whiteSpace=wrap;html=1;shadow=0;sketch=0;verticalAlign=middle;align=center;fillColor=#fff2cc;strokeColor=#d6b656;" parent="1" vertex="1">
          <mxGeometry x="555" y="110" width="180" height="60" as="geometry" />
        </mxCell>
        <mxCell id="XpsL9-PmgXXsCilGG3Tj-4" value="Adjustment&lt;span&gt;&lt;br&gt;&lt;/span&gt;" style="rounded=0;whiteSpace=wrap;html=1;shadow=0;sketch=0;verticalAlign=middle;align=center;" parent="1" vertex="1">
          <mxGeometry x="320" y="220" width="180" height="60" as="geometry" />
        </mxCell>
        <mxCell id="XpsL9-PmgXXsCilGG3Tj-5" value="Payment-dispatcher&lt;span&gt;&lt;br&gt;&lt;/span&gt;" style="rounded=0;whiteSpace=wrap;html=1;shadow=0;sketch=0;verticalAlign=middle;align=center;" parent="1" vertex="1">
          <mxGeometry x="320" y="310" width="180" height="60" as="geometry" />
        </mxCell>
        <mxCell id="XpsL9-PmgXXsCilGG3Tj-6" value="Reconsilation&lt;span&gt;&lt;br&gt;&lt;/span&gt;" style="rounded=0;whiteSpace=wrap;html=1;shadow=0;sketch=0;verticalAlign=middle;align=center;fillColor=#ffe6cc;strokeColor=#d79b00;" parent="1" vertex="1">
          <mxGeometry x="540" y="310" width="180" height="60" as="geometry" />
        </mxCell>
        <mxCell id="XpsL9-PmgXXsCilGG3Tj-7" value="Jobs&lt;span&gt;&lt;br&gt;&lt;/span&gt;" style="rounded=0;whiteSpace=wrap;html=1;shadow=0;sketch=0;verticalAlign=middle;align=center;" parent="1" vertex="1">
          <mxGeometry x="545" y="220" width="180" height="60" as="geometry" />
        </mxCell>
        <mxCell id="XpsL9-PmgXXsCilGG3Tj-8" value="" style="rounded=0;whiteSpace=wrap;html=1;fillColor=#fff2cc;strokeColor=#d6b656;strokeWidth=2;" parent="1" vertex="1">
          <mxGeometry x="140" y="411" width="630" height="90" as="geometry" />
        </mxCell>
        <mxCell id="XpsL9-PmgXXsCilGG3Tj-9" value="T24&lt;span&gt;&lt;br&gt;&lt;/span&gt;" style="rounded=0;whiteSpace=wrap;html=1;shadow=0;sketch=0;verticalAlign=middle;align=center;" parent="1" vertex="1">
          <mxGeometry x="405" y="421" width="60" height="60" as="geometry" />
        </mxCell>
        <mxCell id="XpsL9-PmgXXsCilGG3Tj-10" value="Kastle&lt;span&gt;&lt;br&gt;&lt;/span&gt;" style="rounded=0;whiteSpace=wrap;html=1;shadow=0;sketch=0;verticalAlign=middle;align=center;fillColor=#e1d5e7;strokeColor=#9673a6;" parent="1" vertex="1">
          <mxGeometry x="300" y="421" width="60" height="60" as="geometry" />
        </mxCell>
        <mxCell id="XpsL9-PmgXXsCilGG3Tj-11" value="&lt;span&gt;CTF&lt;br&gt;&lt;/span&gt;" style="rounded=0;whiteSpace=wrap;html=1;shadow=0;sketch=0;verticalAlign=middle;align=center;" parent="1" vertex="1">
          <mxGeometry x="520" y="421" width="60" height="60" as="geometry" />
        </mxCell>
        <mxCell id="XpsL9-PmgXXsCilGG3Tj-12" value="Edaat&lt;span&gt;&lt;br&gt;&lt;/span&gt;" style="rounded=0;whiteSpace=wrap;html=1;shadow=0;sketch=0;verticalAlign=middle;align=center;" parent="1" vertex="1">
          <mxGeometry x="161" y="150" width="60" height="45" as="geometry" />
        </mxCell>
        <mxCell id="XpsL9-PmgXXsCilGG3Tj-13" value="Sadad&lt;span&gt;&lt;br&gt;&lt;/span&gt;" style="rounded=0;whiteSpace=wrap;html=1;shadow=0;sketch=0;verticalAlign=middle;align=center;" parent="1" vertex="1">
          <mxGeometry x="161" y="98" width="60" height="43" as="geometry" />
        </mxCell>
        <mxCell id="XpsL9-PmgXXsCilGG3Tj-14" value="&lt;span&gt;Pgw&lt;br&gt;&lt;/span&gt;" style="rounded=0;whiteSpace=wrap;html=1;shadow=0;sketch=0;verticalAlign=middle;align=center;" parent="1" vertex="1">
          <mxGeometry x="160" y="203" width="60" height="39" as="geometry" />
        </mxCell>
        <mxCell id="XpsL9-PmgXXsCilGG3Tj-15" value="&lt;span&gt;DD&lt;br&gt;&lt;/span&gt;" style="rounded=0;whiteSpace=wrap;html=1;shadow=0;sketch=0;verticalAlign=middle;align=center;" parent="1" vertex="1">
          <mxGeometry x="160" y="299" width="60" height="41" as="geometry" />
        </mxCell>
        <mxCell id="XpsL9-PmgXXsCilGG3Tj-16" value="" style="rounded=0;whiteSpace=wrap;html=1;fillColor=#ffe6cc;strokeColor=#d79b00;strokeWidth=2;" parent="1" vertex="1">
          <mxGeometry x="510" y="-40" width="260" height="90" as="geometry" />
        </mxCell>
        <mxCell id="XpsL9-PmgXXsCilGG3Tj-17" value="Payment UI&lt;span&gt;&lt;br&gt;&lt;/span&gt;" style="rounded=0;whiteSpace=wrap;html=1;shadow=0;sketch=0;verticalAlign=middle;align=center;fillColor=#e1d5e7;strokeColor=#9673a6;" parent="1" vertex="1">
          <mxGeometry x="580" y="-20" width="180" height="60" as="geometry" />
        </mxCell>
        <mxCell id="XpsL9-PmgXXsCilGG3Tj-18" value="" style="rounded=0;whiteSpace=wrap;html=1;fillColor=#dae8fc;strokeColor=#6c8ebf;strokeWidth=2;" parent="1" vertex="1">
          <mxGeometry x="140" y="-160" width="630" height="100" as="geometry" />
        </mxCell>
        <mxCell id="XpsL9-PmgXXsCilGG3Tj-19" value="External GW&lt;span&gt;&lt;br&gt;&lt;/span&gt;" style="rounded=0;whiteSpace=wrap;html=1;shadow=0;sketch=0;verticalAlign=middle;align=center;fillColor=#e1d5e7;strokeColor=#9673a6;" parent="1" vertex="1">
          <mxGeometry x="381" y="-135" width="110" height="60" as="geometry" />
        </mxCell>
        <mxCell id="XpsL9-PmgXXsCilGG3Tj-20" value="OutBound GW&lt;br&gt;(Third Party)&lt;span&gt;&lt;br&gt;&lt;/span&gt;" style="rounded=0;whiteSpace=wrap;html=1;shadow=0;sketch=0;verticalAlign=middle;align=center;fillColor=#e1d5e7;strokeColor=#9673a6;" parent="1" vertex="1">
          <mxGeometry x="200" y="-135" width="110" height="60" as="geometry" />
        </mxCell>
        <mxCell id="XpsL9-PmgXXsCilGG3Tj-21" value="adaptors layer" style="text;html=1;strokeColor=#82b366;fillColor=#d5e8d4;align=center;verticalAlign=middle;whiteSpace=wrap;rounded=0;" parent="1" vertex="1">
          <mxGeometry x="141" y="60" width="91" height="30" as="geometry" />
        </mxCell>
        <mxCell id="XpsL9-PmgXXsCilGG3Tj-22" value="core system Layer" style="text;html=1;strokeColor=#82b366;fillColor=#d5e8d4;align=center;verticalAlign=middle;whiteSpace=wrap;rounded=0;" parent="1" vertex="1">
          <mxGeometry x="141" y="411" width="100" height="30" as="geometry" />
        </mxCell>
        <mxCell id="XpsL9-PmgXXsCilGG3Tj-23" value="BFF layer" style="text;html=1;strokeColor=#82b366;fillColor=#d5e8d4;align=center;verticalAlign=middle;whiteSpace=wrap;rounded=0;" parent="1" vertex="1">
          <mxGeometry x="515" y="-40" width="60" height="20" as="geometry" />
        </mxCell>
        <mxCell id="XpsL9-PmgXXsCilGG3Tj-24" value="GW layer" style="text;html=1;strokeColor=#82b366;fillColor=#d5e8d4;align=center;verticalAlign=middle;whiteSpace=wrap;rounded=0;" parent="1" vertex="1">
          <mxGeometry x="141" y="-160" width="80" height="20" as="geometry" />
        </mxCell>
        <mxCell id="XpsL9-PmgXXsCilGG3Tj-25" value="" style="rounded=0;whiteSpace=wrap;html=1;fillColor=none;strokeColor=#00B336;strokeWidth=2;" parent="1" vertex="1">
          <mxGeometry x="260" y="100" width="280" height="110" as="geometry" />
        </mxCell>
        <mxCell id="XpsL9-PmgXXsCilGG3Tj-26" value="Payment-PreProcess&lt;br&gt;Bill&lt;span&gt;&lt;br&gt;&lt;/span&gt;" style="rounded=0;whiteSpace=wrap;html=1;shadow=0;sketch=0;verticalAlign=middle;align=center;" parent="1" vertex="1">
          <mxGeometry x="270" y="133" width="68" height="60" as="geometry" />
        </mxCell>
        <mxCell id="XpsL9-PmgXXsCilGG3Tj-27" value="Payment-PreProcess&lt;br&gt;Pgw&lt;span&gt;&lt;br&gt;&lt;/span&gt;" style="rounded=0;whiteSpace=wrap;html=1;shadow=0;sketch=0;verticalAlign=middle;align=center;" parent="1" vertex="1">
          <mxGeometry x="370" y="132" width="66" height="60" as="geometry" />
        </mxCell>
        <mxCell id="XpsL9-PmgXXsCilGG3Tj-28" value="Payment-PreProcess&lt;br&gt;Manual&lt;span&gt;&lt;br&gt;&lt;/span&gt;" style="rounded=0;whiteSpace=wrap;html=1;shadow=0;sketch=0;verticalAlign=middle;align=center;fillColor=#d5e8d4;strokeColor=#82b366;" parent="1" vertex="1">
          <mxGeometry x="462" y="132" width="65" height="60" as="geometry" />
        </mxCell>
        <mxCell id="XpsL9-PmgXXsCilGG3Tj-29" value="Payment-PreProcess" style="text;html=1;strokeColor=#82b366;fillColor=#d5e8d4;align=center;verticalAlign=middle;whiteSpace=wrap;rounded=0;" parent="1" vertex="1">
          <mxGeometry x="261" y="100" width="120" height="20" as="geometry" />
        </mxCell>
        <mxCell id="XpsL9-PmgXXsCilGG3Tj-30" value="Core Payment-Hub" style="text;html=1;strokeColor=#82b366;fillColor=#d5e8d4;align=center;verticalAlign=middle;whiteSpace=wrap;rounded=0;" parent="1" vertex="1">
          <mxGeometry x="251" y="60" width="120" height="20" as="geometry" />
        </mxCell>
        <mxCell id="XpsL9-PmgXXsCilGG3Tj-31" value="B2B GW&lt;span&gt;&lt;br&gt;&lt;/span&gt;" style="rounded=0;whiteSpace=wrap;html=1;shadow=0;sketch=0;verticalAlign=middle;align=center;fillColor=#e1d5e7;strokeColor=#9673a6;" parent="1" vertex="1">
          <mxGeometry x="575" y="-135" width="110" height="60" as="geometry" />
        </mxCell>
        <mxCell id="XpsL9-PmgXXsCilGG3Tj-32" value="&lt;span&gt;Corteax&lt;br&gt;&lt;/span&gt;" style="rounded=0;whiteSpace=wrap;html=1;shadow=0;sketch=0;verticalAlign=middle;align=center;fillColor=#e1d5e7;strokeColor=#9673a6;" parent="1" vertex="1">
          <mxGeometry x="615" y="421" width="60" height="60" as="geometry" />
        </mxCell>
        <mxCell id="XpsL9-PmgXXsCilGG3Tj-33" value="" style="rounded=0;whiteSpace=wrap;html=1;fillColor=#f5f5f5;strokeColor=#666666;strokeWidth=2;fontColor=#333333;" parent="1" vertex="1">
          <mxGeometry x="40" y="-280" width="800" height="100" as="geometry" />
        </mxCell>
        <mxCell id="XpsL9-PmgXXsCilGG3Tj-34" value="Channel layer" style="text;html=1;strokeColor=#82b366;fillColor=#d5e8d4;align=center;verticalAlign=middle;whiteSpace=wrap;rounded=0;" parent="1" vertex="1">
          <mxGeometry x="40" y="-280" width="80" height="20" as="geometry" />
        </mxCell>
        <mxCell id="XpsL9-PmgXXsCilGG3Tj-35" value="Mobile App" style="html=1;verticalLabelPosition=bottom;align=center;labelBackgroundColor=#ffffff;verticalAlign=top;strokeWidth=2;strokeColor=#0080F0;shadow=0;dashed=0;shape=mxgraph.ios7.icons.smartphone;" parent="1" vertex="1">
          <mxGeometry x="590" y="-260" width="18" height="54" as="geometry" />
        </mxCell>
        <mxCell id="XpsL9-PmgXXsCilGG3Tj-36" value="Sadad Portal" style="verticalLabelPosition=bottom;html=1;verticalAlign=top;align=center;strokeColor=none;fillColor=#00BEF2;shape=mxgraph.azure.website_generic;pointerEvents=1;" parent="1" vertex="1">
          <mxGeometry x="478" y="-265" width="50" height="62" as="geometry" />
        </mxCell>
        <mxCell id="XpsL9-PmgXXsCilGG3Tj-37" value="Sadad Notification" style="pointerEvents=1;shadow=0;dashed=0;html=1;strokeColor=none;fillColor=#505050;labelPosition=center;verticalLabelPosition=bottom;verticalAlign=top;outlineConnect=0;align=center;shape=mxgraph.office.communications.3rd_party_integration;" parent="1" vertex="1">
          <mxGeometry x="281" y="-257.5" width="54" height="55" as="geometry" />
        </mxCell>
        <mxCell id="XpsL9-PmgXXsCilGG3Tj-38" value="Edaat&amp;nbsp; Notification" style="pointerEvents=1;shadow=0;dashed=0;html=1;strokeColor=none;fillColor=#505050;labelPosition=center;verticalLabelPosition=bottom;verticalAlign=top;outlineConnect=0;align=center;shape=mxgraph.office.communications.3rd_party_integration;" parent="1" vertex="1">
          <mxGeometry x="178" y="-256.5" width="54" height="55" as="geometry" />
        </mxCell>
        <mxCell id="XpsL9-PmgXXsCilGG3Tj-39" value="One Portal" style="verticalLabelPosition=bottom;html=1;verticalAlign=top;align=center;strokeColor=none;fillColor=#00BEF2;shape=mxgraph.azure.website_generic;pointerEvents=1;" parent="1" vertex="1">
          <mxGeometry x="660" y="-268" width="50" height="62" as="geometry" />
        </mxCell>
        <mxCell id="XpsL9-PmgXXsCilGG3Tj-40" value="PGw Notification" style="pointerEvents=1;shadow=0;dashed=0;html=1;strokeColor=none;fillColor=#505050;labelPosition=center;verticalLabelPosition=bottom;verticalAlign=top;outlineConnect=0;align=center;shape=mxgraph.office.communications.3rd_party_integration;" parent="1" vertex="1">
          <mxGeometry x="390" y="-260.5" width="54" height="55" as="geometry" />
        </mxCell>
        <mxCell id="XpsL9-PmgXXsCilGG3Tj-41" value="&lt;span&gt;ARB&lt;br&gt;&lt;/span&gt;" style="rounded=0;whiteSpace=wrap;html=1;shadow=0;sketch=0;verticalAlign=middle;align=center;fillColor=#d5e8d4;strokeColor=#82b366;" parent="1" vertex="1">
          <mxGeometry x="157.5" y="347" width="60" height="40" as="geometry" />
        </mxCell>
        <mxCell id="XpsL9-PmgXXsCilGG3Tj-42" value="ARB Notification" style="pointerEvents=1;shadow=0;dashed=0;html=1;strokeColor=none;fillColor=#505050;labelPosition=center;verticalLabelPosition=bottom;verticalAlign=top;outlineConnect=0;align=center;shape=mxgraph.office.communications.3rd_party_integration;" parent="1" vertex="1">
          <mxGeometry x="70" y="-255" width="54" height="55" as="geometry" />
        </mxCell>
        <mxCell id="XpsL9-PmgXXsCilGG3Tj-43" value="CRM Portal" style="verticalLabelPosition=bottom;html=1;verticalAlign=top;align=center;strokeColor=none;fillColor=#00BEF2;shape=mxgraph.azure.website_generic;pointerEvents=1;" parent="1" vertex="1">
          <mxGeometry x="750" y="-267.5" width="50" height="62" as="geometry" />
        </mxCell>
        <mxCell id="nmbMrTegTF2QSOQArtxi-2" value="T24&lt;span&gt;&lt;br&gt;&lt;/span&gt;" style="rounded=0;whiteSpace=wrap;html=1;shadow=0;sketch=0;verticalAlign=middle;align=center;" vertex="1" parent="1">
          <mxGeometry x="297" y="-25" width="48" height="60" as="geometry" />
        </mxCell>
        <mxCell id="nmbMrTegTF2QSOQArtxi-3" value="Kastle&lt;span&gt;&lt;br&gt;&lt;/span&gt;" style="rounded=0;whiteSpace=wrap;html=1;shadow=0;sketch=0;verticalAlign=middle;align=center;fillColor=#e1d5e7;strokeColor=#9673a6;" vertex="1" parent="1">
          <mxGeometry x="227" y="-25" width="43" height="60" as="geometry" />
        </mxCell>
        <mxCell id="nmbMrTegTF2QSOQArtxi-4" value="&lt;span&gt;CTF&lt;br&gt;&lt;/span&gt;" style="rounded=0;whiteSpace=wrap;html=1;shadow=0;sketch=0;verticalAlign=middle;align=center;" vertex="1" parent="1">
          <mxGeometry x="360" y="-25" width="53" height="60" as="geometry" />
        </mxCell>
        <mxCell id="nmbMrTegTF2QSOQArtxi-5" value="&lt;span&gt;Corteax&lt;br&gt;&lt;/span&gt;" style="rounded=0;whiteSpace=wrap;html=1;shadow=0;sketch=0;verticalAlign=middle;align=center;fillColor=#f8cecc;strokeColor=#b85450;" vertex="1" parent="1">
          <mxGeometry x="430" y="-25" width="48" height="60" as="geometry" />
        </mxCell>
        <mxCell id="nmbMrTegTF2QSOQArtxi-7" value="&lt;span&gt;DD&lt;br&gt;&lt;/span&gt;" style="rounded=0;whiteSpace=wrap;html=1;shadow=0;sketch=0;verticalAlign=middle;align=center;" vertex="1" parent="1">
          <mxGeometry x="160" y="250" width="60" height="41" as="geometry" />
        </mxCell>
        <mxCell id="nmbMrTegTF2QSOQArtxi-8" value="&lt;span&gt;used&lt;/span&gt;" style="rounded=0;whiteSpace=wrap;html=1;shadow=0;sketch=0;verticalAlign=middle;align=center;fillColor=#e1d5e7;strokeColor=#9673a6;" vertex="1" parent="1">
          <mxGeometry x="288" y="520" width="70" height="40" as="geometry" />
        </mxCell>
        <mxCell id="nmbMrTegTF2QSOQArtxi-9" value="out of scope&lt;span&gt;&lt;br&gt;&lt;/span&gt;" style="rounded=0;whiteSpace=wrap;html=1;shadow=0;sketch=0;verticalAlign=middle;align=center;fillColor=#ffe6cc;strokeColor=#d79b00;" vertex="1" parent="1">
          <mxGeometry x="384.5" y="520" width="53.5" height="40" as="geometry" />
        </mxCell>
        <mxCell id="nmbMrTegTF2QSOQArtxi-10" value="&lt;span&gt;new&lt;/span&gt;" style="rounded=0;whiteSpace=wrap;html=1;shadow=0;sketch=0;verticalAlign=middle;align=center;fillColor=#d5e8d4;strokeColor=#82b366;" vertex="1" parent="1">
          <mxGeometry x="472.5" y="520" width="65" height="40" as="geometry" />
        </mxCell>
        <mxCell id="nmbMrTegTF2QSOQArtxi-11" value="change&lt;span&gt;&lt;br&gt;&lt;/span&gt;" style="rounded=0;whiteSpace=wrap;html=1;shadow=0;sketch=0;verticalAlign=middle;align=center;fillColor=#fff2cc;strokeColor=#d6b656;" vertex="1" parent="1">
          <mxGeometry x="553" y="520" width="55" height="40" as="geometry" />
        </mxCell>
      </root>
    </mxGraphModel>
  </diagram>
</mxfile>
